<svg viewBox="0 0 820 580" xmlns="http://www.w3.org/2000/svg" font-family="Segoe UI, Arial, sans-serif">
  <rect width="820" height="580" fill="#f8f9fa" rx="12"/>

  <text x="410" y="38" text-anchor="middle" font-size="19" font-weight="bold" fill="#232f3e">Security Group Chaining — Access Control Design</text>

  <!-- LEGEND -->
  <rect x="30" y="55" width="760" height="50" rx="8" fill="white" stroke="#ddd" stroke-width="1"/>
  <text x="50" y="75" font-size="12" font-weight="bold" fill="#333">How security group chaining works:</text>
  <text x="50" y="93" font-size="11" fill="#555">The rds-sg inbound rule references ec2-app-sg by ID — not a CIDR. Only resources carrying ec2-app-sg can reach RDS on port 3306.</text>

  <!-- ── ec2-app-sg card ── -->
  <rect x="30" y="122" width="360" height="200" rx="10" fill="white" stroke="#28a745" stroke-width="2"/>
  <rect x="30" y="122" width="360" height="36" rx="10" fill="#28a745"/>
  <text x="210" y="145" text-anchor="middle" font-size="14" font-weight="bold" fill="white">ec2-app-sg</text>

  <text x="50" y="176" font-size="12" font-weight="bold" fill="#333">Inbound Rules</text>
  <line x1="50" y1="182" x2="372" y2="182" stroke="#ddd" stroke-width="1"/>

  <text x="50" y="200" font-size="11" fill="#555">Type</text>
  <text x="160" y="200" font-size="11" fill="#555">Port</text>
  <text x="250" y="200" font-size="11" fill="#555">Source</text>

  <rect x="44" y="206" width="335" height="26" rx="4" fill="#f0fff4"/>
  <text x="50" y="223" font-size="11" fill="#333">SSH</text>
  <text x="160" y="223" font-size="11" fill="#333">22</text>
  <text x="250" y="223" font-size="11" fill="#333">Your IP /32 only</text>

  <rect x="44" y="234" width="335" height="26" rx="4" fill="#f0fff4"/>
  <text x="50" y="251" font-size="11" fill="#333">HTTP</text>
  <text x="160" y="251" font-size="11" fill="#333">80</text>
  <text x="250" y="251" font-size="11" fill="#333">0.0.0.0/0 (anywhere)</text>

  <text x="50" y="286" font-size="12" font-weight="bold" fill="#333">Outbound Rules</text>
  <rect x="44" y="292" width="335" height="26" rx="4" fill="#f0fff4"/>
  <text x="50" y="309" font-size="11" fill="#333">All traffic</text>
  <text x="160" y="309" font-size="11" fill="#333">All</text>
  <text x="250" y="309" font-size="11" fill="#333">0.0.0.0/0</text>

  <!-- ── rds-sg card ── -->
  <rect x="430" y="122" width="360" height="200" rx="10" fill="white" stroke="#527fff" stroke-width="2"/>
  <rect x="430" y="122" width="360" height="36" rx="10" fill="#527fff"/>
  <text x="610" y="145" text-anchor="middle" font-size="14" font-weight="bold" fill="white">rds-sg</text>

  <text x="450" y="176" font-size="12" font-weight="bold" fill="#333">Inbound Rules</text>
  <line x1="450" y1="182" x2="772" y2="182" stroke="#ddd" stroke-width="1"/>

  <text x="450" y="200" font-size="11" fill="#555">Type</text>
  <text x="560" y="200" font-size="11" fill="#555">Port</text>
  <text x="630" y="200" font-size="11" fill="#555">Source</text>

  <rect x="444" y="206" width="335" height="26" rx="4" fill="#eef0ff"/>
  <text x="450" y="223" font-size="11" fill="#333">MySQL/Aurora</text>
  <text x="560" y="223" font-size="11" fill="#333">3306</text>
  <text x="630" y="223" font-size="11" fill="#527fff" font-weight="bold">ec2-app-sg (SG ID)</text>

  <text x="450" y="258" font-size="11" fill="#888">No CIDR-based rules.</text>
  <text x="450" y="276" font-size="11" fill="#888">No IP address allows access.</text>
  <text x="450" y="294" font-size="11" fill="#888">Only the security group matters.</text>

  <text x="450" y="316" font-size="11" fill="#333" font-weight="bold">Outbound Rules</text>
  <rect x="444" y="322" width="335" height="2" fill="#eee"/>

  <!-- Arrow between SGs -->
  <line x1="392" y1="223" x2="428" y2="223" stroke="#527fff" stroke-width="2.5" marker-end="url(#arrowChain)"/>
  <text x="410" y="213" text-anchor="middle" font-size="10" fill="#527fff">chains</text>

  <!-- Scenario boxes -->
  <rect x="30" y="342" width="760" height="210" rx="10" fill="white" stroke="#ddd" stroke-width="1.5"/>
  <text x="50" y="365" font-size="13" font-weight="bold" fill="#333">Access Scenarios</text>
  <line x1="30" y1="372" x2="790" y2="372" stroke="#ddd" stroke-width="1"/>

  <!-- Scenario 1 — ALLOWED -->
  <rect x="44" y="380" width="220" height="60" rx="8" fill="#f0fff4" stroke="#28a745" stroke-width="1.5"/>
  <text x="154" y="397" text-anchor="middle" font-size="11" font-weight="bold" fill="#28a745">✓ ALLOWED</text>
  <text x="154" y="413" text-anchor="middle" font-size="10" fill="#333">EC2 (carrying ec2-app-sg)</text>
  <text x="154" y="428" text-anchor="middle" font-size="10" fill="#333">→ RDS port 3306</text>

  <!-- Scenario 2 — BLOCKED -->
  <rect x="284" y="380" width="220" height="60" rx="8" fill="#fff5f5" stroke="#c0392b" stroke-width="1.5"/>
  <text x="394" y="397" text-anchor="middle" font-size="11" font-weight="bold" fill="#c0392b">✗ BLOCKED</text>
  <text x="394" y="413" text-anchor="middle" font-size="10" fill="#333">Your laptop / internet</text>
  <text x="394" y="428" text-anchor="middle" font-size="10" fill="#333">→ RDS port 3306</text>

  <!-- Scenario 3 — BLOCKED -->
  <rect x="524" y="380" width="250" height="60" rx="8" fill="#fff5f5" stroke="#c0392b" stroke-width="1.5"/>
  <text x="649" y="397" text-anchor="middle" font-size="11" font-weight="bold" fill="#c0392b">✗ BLOCKED</text>
  <text x="649" y="413" text-anchor="middle" font-size="10" fill="#333">Another EC2 (wrong SG)</text>
  <text x="649" y="428" text-anchor="middle" font-size="10" fill="#333">→ RDS port 3306</text>

  <!-- Why this is better than IP rules -->
  <text x="50" y="465" font-size="12" font-weight="bold" fill="#232f3e">Why SG chaining beats IP-based rules:</text>
  <text x="50" y="483" font-size="11" fill="#555">• EC2 public IPs change on every restart — SG rules never need updating</text>
  <text x="50" y="499" font-size="11" fill="#555">• New app servers get DB access automatically by attaching ec2-app-sg</text>
  <text x="50" y="515" font-size="11" fill="#555">• Revoking access is instant — remove the SG from the instance</text>
  <text x="50" y="531" font-size="11" fill="#555">• No CIDR management, no IP lists to maintain</text>

  <defs>
    <marker id="arrowChain" markerWidth="10" markerHeight="7" refX="9" refY="3.5" orient="auto">
      <polygon points="0 0, 10 3.5, 0 7" fill="#527fff"/>
    </marker>
  </defs>
</svg>